<?xml version="1.0" encoding="utf-8"?>
<!-- Generator: Adobe Illustrator 25.3.0, SVG Export Plug-In . SVG Version: 6.00 Build 0)  -->
<svg version="1.1" xmlns="http://www.w3.org/2000/svg" xmlns:xlink="http://www.w3.org/1999/xlink" x="0px" y="0px"
	 viewBox="0 0 1363 398" style="enable-background:new 0 0 1363 398;" xml:space="preserve">
<style type="text/css">
	.st0{fill:url(#SVGID_1_);}
	.st1{fill:url(#SVGID_2_);}
	.st2{fill:url(#SVGID_3_);}
	.st3{fill:url(#SVGID_4_);}
	.st4{fill:url(#SVGID_5_);}
	.st5{fill:url(#SVGID_6_);}
	.st6{fill:url(#SVGID_7_);}
	.st7{fill:url(#SVGID_8_);}
	.st8{fill:url(#SVGID_9_);}
	.st9{fill:#FFFFFF;}
	.st10{display:none;}
</style>
<g id="Layer_1">
	<g>
		<linearGradient id="SVGID_1_" gradientUnits="userSpaceOnUse" x1="116.5922" y1="200.6704" x2="235.2271" y2="200.6704">
			<stop  offset="0" style="stop-color:#004E9E"/>
			<stop  offset="0.2085" style="stop-color:#1D4A9A"/>
			<stop  offset="0.5551" style="stop-color:#483D91"/>
			<stop  offset="0.9949" style="stop-color:#702383"/>
			<stop  offset="1" style="stop-color:#702283"/>
		</linearGradient>
		<circle class="st0" cx="175.91" cy="200.67" r="59.32"/>
		<linearGradient id="SVGID_2_" gradientUnits="userSpaceOnUse" x1="175.9061" y1="110.4338" x2="305.9995" y2="110.4338">
			<stop  offset="0" style="stop-color:#B0D0EF"/>
			<stop  offset="0.1389" style="stop-color:#A7C8EB"/>
			<stop  offset="0.3698" style="stop-color:#90B1DE"/>
			<stop  offset="0.6642" style="stop-color:#698CC8"/>
			<stop  offset="0.9944" style="stop-color:#3761AB"/>
		</linearGradient>
		<polygon class="st1" points="175.91,48.61 175.91,145.69 221.92,172.26 306,123.72 		"/>
		<linearGradient id="SVGID_3_" gradientUnits="userSpaceOnUse" x1="45.8136" y1="110.4336" x2="175.9076" y2="110.4336">
			<stop  offset="0" style="stop-color:#B0D0EF"/>
			<stop  offset="0.1389" style="stop-color:#A7C8EB"/>
			<stop  offset="0.3698" style="stop-color:#90B1DE"/>
			<stop  offset="0.6642" style="stop-color:#698CC8"/>
			<stop  offset="0.9944" style="stop-color:#3761AB"/>
		</linearGradient>
		<polygon class="st2" points="45.81,123.72 129.89,172.26 175.91,145.69 175.91,48.61 		"/>
		<linearGradient id="SVGID_4_" gradientUnits="userSpaceOnUse" x1="45.8143" y1="198.8265" x2="129.8913" y2="198.8265">
			<stop  offset="0" style="stop-color:#B0D0EF"/>
			<stop  offset="0.1389" style="stop-color:#A7C8EB"/>
			<stop  offset="0.3698" style="stop-color:#90B1DE"/>
			<stop  offset="0.6642" style="stop-color:#698CC8"/>
			<stop  offset="0.9944" style="stop-color:#3761AB"/>
		</linearGradient>
		<polygon class="st3" points="45.81,273.94 129.89,225.39 129.89,172.26 45.81,123.72 		"/>
		<linearGradient id="SVGID_5_" gradientUnits="userSpaceOnUse" x1="45.8141" y1="287.2186" x2="175.9075" y2="287.2186">
			<stop  offset="0" style="stop-color:#B0D0EF"/>
			<stop  offset="0.1389" style="stop-color:#A7C8EB"/>
			<stop  offset="0.3698" style="stop-color:#90B1DE"/>
			<stop  offset="0.6642" style="stop-color:#698CC8"/>
			<stop  offset="0.9944" style="stop-color:#3761AB"/>
		</linearGradient>
		<polygon class="st4" points="175.91,349.04 175.91,251.96 129.89,225.39 45.81,273.94 		"/>
		<linearGradient id="SVGID_6_" gradientUnits="userSpaceOnUse" x1="175.906" y1="287.2188" x2="306" y2="287.2188">
			<stop  offset="0" style="stop-color:#B0D0EF"/>
			<stop  offset="0.1389" style="stop-color:#A7C8EB"/>
			<stop  offset="0.3698" style="stop-color:#90B1DE"/>
			<stop  offset="0.6642" style="stop-color:#698CC8"/>
			<stop  offset="0.9944" style="stop-color:#3761AB"/>
		</linearGradient>
		<polygon class="st5" points="306,273.93 221.92,225.39 175.91,251.96 175.91,349.04 		"/>
		<linearGradient id="SVGID_7_" gradientUnits="userSpaceOnUse" x1="221.9222" y1="198.8259" x2="305.9993" y2="198.8259">
			<stop  offset="0" style="stop-color:#B0D0EF"/>
			<stop  offset="0.1389" style="stop-color:#A7C8EB"/>
			<stop  offset="0.3698" style="stop-color:#90B1DE"/>
			<stop  offset="0.6642" style="stop-color:#698CC8"/>
			<stop  offset="0.9944" style="stop-color:#3761AB"/>
		</linearGradient>
		<polygon class="st6" points="306,123.72 221.92,172.26 221.92,225.39 306,273.94 		"/>
		<linearGradient id="SVGID_8_" gradientUnits="userSpaceOnUse" x1="45.8143" y1="123.7174" x2="175.9096" y2="123.7174">
			<stop  offset="0" style="stop-color:#FFFFFF"/>
			<stop  offset="0.9944" style="stop-color:#FFFFFF;stop-opacity:0"/>
		</linearGradient>
		<polygon class="st7" points="45.81,123.72 175.91,198.83 175.91,48.61 		"/>
		
			<linearGradient id="SVGID_9_" gradientUnits="userSpaceOnUse" x1="1386.6144" y1="2446.7651" x2="1516.7097" y2="2446.7651" gradientTransform="matrix(0.5 -0.866 -0.866 -0.5 1601.1819 2773.2283)">
			<stop  offset="0" style="stop-color:#FFFFFF"/>
			<stop  offset="0.9944" style="stop-color:#FFFFFF;stop-opacity:0"/>
		</linearGradient>
		<polygon class="st8" points="175.45,349.05 175.45,198.83 305.54,273.93 		"/>
	</g>
	<g>
		<path class="st9" d="M425.4,133.89h22.59l47.72,112.14H470.1l-10.18-24.97h-47.08l-10.18,24.97h-24.97L425.4,133.89z
			 M451.17,199.42l-14.79-36.11l-14.79,36.11H451.17z"/>
		<path class="st9" d="M504.94,215.96v-55.19h24.18v47.56c0,11.45,5.41,17.34,14.63,17.34c9.23,0,15.11-5.89,15.11-17.34v-47.56
			h24.18v85.26h-24.18v-12.09c-5.57,7.16-12.73,13.68-24.97,13.68C515.59,247.62,504.94,235.53,504.94,215.96z"/>
		<path class="st9" d="M607.1,221.85v-40.4h-10.18v-20.68h10.18v-21.79h24.18v21.79h20.04v20.68h-20.04v36.43
			c0,5.57,2.39,8.27,7.79,8.27c4.45,0,8.43-1.11,11.93-3.02v19.41c-5.09,3.02-10.98,4.93-19.09,4.93
			C617.12,247.46,607.1,241.57,607.1,221.85z"/>
		<path class="st9" d="M667.59,129.91h24.18v42.95c5.57-7.16,12.73-13.68,24.97-13.68c18.29,0,28.95,12.09,28.95,31.65v55.19h-24.18
			v-47.56c0-11.45-5.41-17.34-14.63-17.34c-9.23,0-15.11,5.88-15.11,17.34v47.56h-24.18V129.91z"/>
		<path class="st9" d="M819.65,247.94c-7.95,0-15.33-1.49-22.11-4.46c-6.79-2.97-12.65-7.02-17.58-12.17
			c-4.93-5.14-8.78-11.22-11.53-18.21c-2.76-7-4.14-14.48-4.14-22.43v-0.32c0-7.85,1.4-15.27,4.22-22.27
			c2.81-7,6.68-13.12,11.61-18.37c4.93-5.25,10.79-9.39,17.58-12.41c6.79-3.02,14.21-4.53,22.27-4.53c4.98,0,9.49,0.43,13.52,1.27
			c4.03,0.85,7.77,2.07,11.21,3.66c3.44,1.59,6.68,3.47,9.7,5.65c3.02,2.17,5.96,4.59,8.83,7.24l-5.89,6.05
			c-2.44-2.33-4.99-4.51-7.64-6.52c-2.65-2.01-5.49-3.74-8.51-5.17c-3.02-1.43-6.31-2.57-9.86-3.42c-3.55-0.85-7.4-1.27-11.53-1.27
			c-6.68,0-12.88,1.27-18.61,3.82c-5.73,2.54-10.68,6.07-14.87,10.58c-4.19,4.51-7.48,9.78-9.86,15.83
			c-2.39,6.05-3.58,12.57-3.58,19.57v0.32c0,7,1.22,13.55,3.66,19.64c2.44,6.1,5.75,11.4,9.94,15.91
			c4.19,4.51,9.15,8.06,14.87,10.66c5.73,2.6,11.93,3.9,18.61,3.9c8.06,0,15.06-1.48,21-4.45c5.94-2.97,11.72-7.26,17.34-12.89
			l5.57,5.41c-2.97,2.86-6.02,5.49-9.15,7.87c-3.13,2.39-6.47,4.43-10.02,6.12c-3.55,1.7-7.4,3.02-11.53,3.98
			C829.04,247.46,824.53,247.94,819.65,247.94z"/>
		<path class="st9" d="M881.69,164.9h7.79v23.07c1.59-3.6,3.6-6.95,6.04-10.02c2.44-3.07,5.19-5.7,8.27-7.87
			c3.07-2.17,6.44-3.82,10.1-4.93c3.66-1.11,7.5-1.62,11.53-1.51v8.59h-0.8c-4.67,0-9.12,0.88-13.36,2.63
			c-4.24,1.75-7.98,4.35-11.21,7.79c-3.24,3.45-5.81,7.69-7.71,12.73c-1.91,5.04-2.86,10.84-2.86,17.42v33.25h-7.79V164.9z"/>
		<path class="st9" d="M952,271.96c-3.08,0-5.83-0.3-8.27-0.89c-2.44-0.6-5.04-1.49-7.79-2.68l2.7-6.92
			c2.12,1.06,4.19,1.83,6.2,2.31c2.01,0.48,4.56,0.72,7.64,0.72c2.12,0,4.08-0.32,5.89-0.95c1.8-0.64,3.5-1.72,5.09-3.26
			c1.59-1.54,3.13-3.52,4.61-5.96c1.48-2.44,2.97-5.4,4.45-8.89l-38.97-80.52h9.07l33.72,72.54l29.27-72.54h8.59l-35.15,83.99
			c-3.61,8.48-7.56,14.45-11.85,17.9C962.89,270.23,957.83,271.96,952,271.96z"/>
		<path class="st9" d="M1027.58,164.9h7.79v18.13c1.69-2.65,3.66-5.19,5.89-7.63c2.23-2.44,4.69-4.56,7.4-6.36
			c2.7-1.8,5.73-3.26,9.07-4.38c3.34-1.11,7.02-1.67,11.06-1.67c4.88,0,9.68,0.96,14.4,2.86c4.72,1.91,8.93,4.67,12.65,8.27
			c3.71,3.61,6.71,8.03,8.99,13.28c2.28,5.25,3.42,11.16,3.42,17.74v0.32c0,6.58-1.14,12.49-3.42,17.74
			c-2.28,5.25-5.28,9.7-8.99,13.36c-3.71,3.66-7.93,6.47-12.65,8.43c-4.72,1.96-9.52,2.94-14.4,2.94c-4.03,0-7.74-0.53-11.13-1.59
			c-3.4-1.06-6.44-2.49-9.15-4.29c-2.7-1.8-5.15-3.87-7.32-6.2c-2.17-2.33-4.11-4.77-5.81-7.32v42.95h-7.79V164.9z M1068.07,240.46
			c4.46,0,8.63-0.8,12.52-2.39c3.88-1.59,7.26-3.87,10.13-6.84c2.87-2.97,5.13-6.6,6.78-10.9c1.65-4.29,2.47-9.15,2.47-14.56v-0.32
			c0-5.3-0.85-10.13-2.55-14.48c-1.7-4.35-4.01-8.03-6.94-11.05c-2.92-3.02-6.33-5.35-10.21-7c-3.88-1.64-7.95-2.47-12.2-2.47
			c-4.26,0-8.37,0.85-12.36,2.55c-3.99,1.7-7.52,4.08-10.6,7.16c-3.08,3.08-5.56,6.74-7.42,10.98c-1.86,4.24-2.79,8.96-2.79,14.16
			v0.32c0,5.2,0.93,9.94,2.79,14.24c1.86,4.29,4.33,7.95,7.42,10.98c3.08,3.02,6.62,5.38,10.6,7.08
			C1059.7,239.61,1063.81,240.46,1068.07,240.46z"/>
		<path class="st9" d="M1151.53,247.46c-3.18,0-6.15-0.42-8.91-1.27c-2.76-0.85-5.17-2.2-7.24-4.06c-2.07-1.86-3.69-4.19-4.85-7
			c-1.17-2.81-1.75-6.12-1.75-9.94v-53.13h-11.77v-7.16h11.77v-25.93h7.79v25.93h28.47v7.16h-28.47v52.21
			c0,5.82,1.51,9.89,4.53,12.22c3.02,2.33,6.92,3.49,11.69,3.49c2.01,0,3.92-0.2,5.73-0.6c1.8-0.4,3.87-1.1,6.2-2.1v7.32
			c-2.12,0.95-4.22,1.67-6.28,2.15C1156.38,247.22,1154.07,247.46,1151.53,247.46z"/>
		<path class="st9" d="M1215.98,247.94c-6.04,0-11.59-1.14-16.62-3.42c-5.04-2.28-9.41-5.33-13.12-9.15
			c-3.71-3.82-6.6-8.27-8.67-13.36c-2.07-5.09-3.1-10.5-3.1-16.23v-0.32c0-5.73,1.03-11.13,3.1-16.23c2.07-5.09,4.98-9.6,8.75-13.52
			c3.76-3.92,8.19-7.02,13.28-9.31c5.09-2.28,10.66-3.42,16.7-3.42c6.04,0,11.58,1.14,16.62,3.42c5.04,2.28,9.41,5.33,13.12,9.15
			c3.71,3.82,6.6,8.27,8.67,13.36c2.07,5.09,3.1,10.5,3.1,16.23v0.32c0,5.73-1.03,11.14-3.1,16.23c-2.07,5.09-4.99,9.6-8.75,13.52
			c-3.77,3.92-8.19,7.03-13.28,9.31C1227.59,246.79,1222.02,247.94,1215.98,247.94z M1216.3,240.46c4.79,0,9.24-0.92,13.35-2.77
			c4.1-1.85,7.62-4.33,10.55-7.44c2.93-3.11,5.22-6.78,6.87-11c1.65-4.22,2.48-8.71,2.48-13.46v-0.32c0-4.86-0.85-9.42-2.56-13.7
			s-4.08-7.99-7.11-11.16c-3.04-3.17-6.61-5.65-10.71-7.44c-4.1-1.79-8.5-2.69-13.19-2.69c-4.8,0-9.25,0.93-13.35,2.77
			c-4.1,1.85-7.62,4.33-10.55,7.44c-2.93,3.12-5.22,6.78-6.87,11.01c-1.65,4.22-2.48,8.71-2.48,13.46v0.32
			c0,4.86,0.85,9.42,2.56,13.7c1.71,4.27,4.07,8,7.11,11.16s6.61,5.65,10.71,7.44C1207.21,239.56,1211.61,240.46,1216.3,240.46z"/>
		<path class="st9" d="M1273.75,164.9h7.79v23.07c1.59-3.6,3.6-6.95,6.04-10.02c2.44-3.07,5.19-5.7,8.27-7.87
			c3.07-2.17,6.44-3.82,10.1-4.93c3.66-1.11,7.5-1.62,11.53-1.51v8.59h-0.8c-4.67,0-9.12,0.88-13.36,2.63
			c-4.24,1.75-7.98,4.35-11.21,7.79c-3.24,3.45-5.81,7.69-7.71,12.73c-1.91,5.04-2.86,10.84-2.86,17.42v33.25h-7.79V164.9z"/>
	</g>
</g>
<g id="Ebene_3" class="st10">
</g>
</svg>
